# xmcd
#
# Track frame offsets: 
#        150
#        20638
#        35150
#        47890
#        73521
#        89101
#        111169
#        124413
#        137826
#        148113
#        160166
#        176975
#        192995
#        218881
#        240697
#
# Disc length: 3453 seconds
#
# Revision: 0
# Processed by: cddbd v1.5.2PL0 Copyright (c) Steve Scherf et al.
# Submitted via: ExactAudioCopy v0.99pb5
#
DISCID=f20d7b0f
DTITLE=Various Artist - Secrets of New Orleans
DYEAR=2000
DGENRE=Blues
TTITLE0=Dwayne Dopsie - Rock House
TTITLE1=Dwayne Dopsie - Run Run Rudolph
TTITLE2=Jeremy Lyons - Coffee Rag
TTITLE3=Mamou - Hey Nance
TTITLE4=Jeff Chaz - Born in Lake Charles
TTITLE5=Coolbone - If
TTITLE6=Coolbone - Pulse
TTITLE7=Dino Casino - Jump, Jive and Wail
TTITLE8=Dino Casino - Jump Jive Santa
TTITLE9=Harry Connick, Sr. - I'm Gonna Sit Right Down and Write Myself
TTITLE9=a Letter
TTITLE10=Harry Connick, Sr. - Tin Roof Blues
TTITLE11=Red, Hot and Blues - Some You Win
TTITLE12=Gary Brown - Mr. Cleanhead
TTITLE13=The Vieux Carré Band - Tell It Like It Is
TTITLE14=The Vieux Carré Band - You Walked Out on Me
EXTD=
EXTT0=
EXTT1=
EXTT2=
EXTT3=
EXTT4=
EXTT5=
EXTT6=
EXTT7=
EXTT8=
EXTT9=
EXTT10=
EXTT11=
EXTT12=
EXTT13=
EXTT14=
PLAYORDER=
